<svg xmlns="http://www.w3.org/2000/svg" viewBox="0 0 512 512" width="512" height="512" role="img" aria-label="INFINICUS mark">
  <defs>
    <linearGradient id="r" gradientUnits="userSpaceOnUse" x1="256" y1="362" x2="256" y2="70">
      <stop offset="0" stop-color="#ff2fd0"/><stop offset="0.4" stop-color="#a13bff"/><stop offset="0.72" stop-color="#3aa9ff"/><stop offset="1" stop-color="#22e6ff"/>
    </linearGradient>
    <radialGradient id="c" cx="50%" cy="50%" r="50%">
      <stop offset="0" stop-color="#ffffff"/><stop offset="0.2" stop-color="#ff4ddb"/><stop offset="0.6" stop-color="#c026d3" stop-opacity="0.5"/><stop offset="1" stop-color="#c026d3" stop-opacity="0"/>
    </radialGradient>
    <filter id="g" x="-80%" y="-80%" width="260%" height="260%"><feGaussianBlur stdDeviation="6" result="b"/><feMerge><feMergeNode in="b"/><feMergeNode in="SourceGraphic"/></feMerge></filter>
    <filter id="gs" x="-60%" y="-60%" width="220%" height="220%"><feGaussianBlur stdDeviation="2.5" result="b"/><feMerge><feMergeNode in="b"/><feMergeNode in="SourceGraphic"/></feMerge></filter>
  </defs>
  <rect width="512" height="512" rx="96" fill="#04060d"/>
  <ellipse cx="256" cy="362" rx="100" ry="56" fill="url(#c)" filter="url(#g)"/>
  <g filter="url(#g)" stroke="url(#r)" stroke-width="2.6" stroke-linecap="round" fill="none" opacity="0.96">
    <line x1="256" y1="362" x2="256" y2="70"/><line x1="256" y1="362" x2="294" y2="86"/><line x1="256" y1="362" x2="218" y2="86"/><line x1="256" y1="362" x2="337" y2="112"/><line x1="256" y1="362" x2="175" y2="112"/><line x1="256" y1="362" x2="371" y2="144"/><line x1="256" y1="362" x2="141" y2="144"/><line x1="256" y1="362" x2="397" y2="180"/><line x1="256" y1="362" x2="115" y2="180"/><line x1="256" y1="362" x2="414" y2="218"/><line x1="256" y1="362" x2="98" y2="218"/><line x1="256" y1="362" x2="421" y2="244"/><line x1="256" y1="362" x2="91" y2="244"/>
  </g>
  <g filter="url(#gs)" stroke="url(#r)" stroke-width="1.6" stroke-linecap="round" fill="none" opacity="0.85">
    <line x1="256" y1="362" x2="284" y2="200"/><line x1="256" y1="362" x2="228" y2="200"/><line x1="256" y1="362" x2="312" y2="232"/><line x1="256" y1="362" x2="200" y2="232"/>
  </g>
  <g fill="#7ef0ff" filter="url(#gs)"><circle cx="300" cy="170" r="2.4"/><circle cx="210" cy="180" r="2.2"/><circle cx="340" cy="210" r="1.8"/><circle cx="256" cy="120" r="2"/></g>
  <g fill="#ff5ce0" filter="url(#gs)"><circle cx="276" cy="270" r="2.2"/><circle cx="232" cy="290" r="1.8"/></g>
</svg>
